<mxfile host="app.diagrams.net" modified="2021-12-29T15:09:16.400Z" agent="5.0 (Windows NT 6.1; Win64; x64) AppleWebKit/537.36 (KHTML, like Gecko) Chrome/96.0.4664.110 Safari/537.36" etag="ufxzHh7hQOLWHZgTXLaW" version="16.1.0" type="github" pages="2">
  <diagram id="bVKBuHjyLu6Nhd4JCsNb" name="Spring原理">
    <mxGraphModel dx="868" dy="450" grid="0" gridSize="10" guides="1" tooltips="1" connect="1" arrows="1" fold="1" page="1" pageScale="1" pageWidth="827" pageHeight="1169" math="0" shadow="0">
      <root>
        <mxCell id="0" />
        <mxCell id="1" parent="0" />
        <mxCell id="fvrb1zfOBYmfdSBxhrvv-1" value="&lt;font style=&quot;font-size: 15px&quot;&gt;XML&lt;/font&gt;" style="rounded=0;whiteSpace=wrap;html=1;" parent="1" vertex="1">
          <mxGeometry x="36" y="215" width="110" height="50" as="geometry" />
        </mxCell>
        <mxCell id="kVP1armv6cL0o3EUo8lq-1" value="&lt;font style=&quot;font-size: 15px&quot;&gt;bean定义信息&lt;/font&gt;" style="shape=note;whiteSpace=wrap;html=1;backgroundOutline=1;darkOpacity=0.05;size=17;fillColor=#fff2cc;strokeColor=#d6b656;" parent="1" vertex="1">
          <mxGeometry x="36" y="65" width="110" height="50" as="geometry" />
        </mxCell>
        <mxCell id="kVP1armv6cL0o3EUo8lq-7" value="" style="edgeStyle=orthogonalEdgeStyle;rounded=0;orthogonalLoop=1;jettySize=auto;html=1;fontSize=15;" parent="1" source="kVP1armv6cL0o3EUo8lq-2" target="kVP1armv6cL0o3EUo8lq-5" edge="1">
          <mxGeometry relative="1" as="geometry" />
        </mxCell>
        <mxCell id="kVP1armv6cL0o3EUo8lq-2" value="&lt;font style=&quot;font-size: 15px&quot;&gt;注解&lt;/font&gt;" style="rounded=0;whiteSpace=wrap;html=1;" parent="1" vertex="1">
          <mxGeometry x="36" y="285" width="110" height="50" as="geometry" />
        </mxCell>
        <mxCell id="kVP1armv6cL0o3EUo8lq-3" value="" style="rounded=0;whiteSpace=wrap;html=1;fontSize=15;" parent="1" vertex="1">
          <mxGeometry x="226" y="65" width="430" height="300" as="geometry" />
        </mxCell>
        <mxCell id="kVP1armv6cL0o3EUo8lq-4" value="BeanFactory" style="rounded=0;whiteSpace=wrap;html=1;fontSize=15;" parent="1" vertex="1">
          <mxGeometry x="381" y="35" width="120" height="60" as="geometry" />
        </mxCell>
        <mxCell id="kVP1armv6cL0o3EUo8lq-15" value="" style="edgeStyle=orthogonalEdgeStyle;rounded=0;orthogonalLoop=1;jettySize=auto;html=1;fontSize=15;endArrow=block;endFill=1;" parent="1" source="kVP1armv6cL0o3EUo8lq-5" target="kVP1armv6cL0o3EUo8lq-13" edge="1">
          <mxGeometry relative="1" as="geometry" />
        </mxCell>
        <mxCell id="kVP1armv6cL0o3EUo8lq-5" value="BeanDefinition&lt;br&gt;保留原始值" style="rounded=0;whiteSpace=wrap;html=1;fontSize=15;" parent="1" vertex="1">
          <mxGeometry x="246" y="250" width="120" height="50" as="geometry" />
        </mxCell>
        <mxCell id="kVP1armv6cL0o3EUo8lq-6" value="" style="edgeStyle=orthogonalEdgeStyle;rounded=0;orthogonalLoop=1;jettySize=auto;html=1;fontSize=15;" parent="1" source="fvrb1zfOBYmfdSBxhrvv-1" target="kVP1armv6cL0o3EUo8lq-5" edge="1">
          <mxGeometry relative="1" as="geometry">
            <Array as="points">
              <mxPoint x="196" y="240" />
              <mxPoint x="196" y="275" />
            </Array>
          </mxGeometry>
        </mxCell>
        <mxCell id="kVP1armv6cL0o3EUo8lq-8" value="创建对象" style="rounded=0;whiteSpace=wrap;html=1;fontSize=15;" parent="1" vertex="1">
          <mxGeometry x="501" y="245" width="120" height="60" as="geometry" />
        </mxCell>
        <mxCell id="kVP1armv6cL0o3EUo8lq-12" value="" style="endArrow=block;dashed=1;endFill=1;endSize=12;html=1;rounded=0;fontSize=15;exitX=1;exitY=0.5;exitDx=0;exitDy=0;" parent="1" source="kVP1armv6cL0o3EUo8lq-5" edge="1">
          <mxGeometry width="160" relative="1" as="geometry">
            <mxPoint x="376" y="275" as="sourcePoint" />
            <mxPoint x="506" y="274.5" as="targetPoint" />
          </mxGeometry>
        </mxCell>
        <mxCell id="kVP1armv6cL0o3EUo8lq-14" value="反射" style="edgeLabel;html=1;align=center;verticalAlign=middle;resizable=0;points=[];fontSize=15;" parent="kVP1armv6cL0o3EUo8lq-12" vertex="1" connectable="0">
          <mxGeometry x="-0.2609" y="-1" relative="1" as="geometry">
            <mxPoint as="offset" />
          </mxGeometry>
        </mxCell>
        <mxCell id="kVP1armv6cL0o3EUo8lq-13" value="最终的BD对象" style="rounded=0;whiteSpace=wrap;html=1;fontSize=15;" parent="1" vertex="1">
          <mxGeometry x="251" y="115" width="110" height="40" as="geometry" />
        </mxCell>
        <mxCell id="kVP1armv6cL0o3EUo8lq-16" value="BeanFactoryPostProcessor" style="rounded=0;whiteSpace=wrap;html=1;fontSize=15;" parent="1" vertex="1">
          <mxGeometry x="203.5" y="185" width="205" height="40" as="geometry" />
        </mxCell>
        <mxCell id="kVP1armv6cL0o3EUo8lq-17" value="&lt;div style=&quot;text-align: left&quot;&gt;&lt;span style=&quot;font-size: 15px&quot;&gt;&amp;lt;bean id=&#39;dataSource&#39; class=&#39;com.alibaba.druid.pool.DruidDataSource&#39;&amp;gt;&lt;/span&gt;&lt;/div&gt;&lt;span style=&quot;font-size: 15px&quot;&gt;&lt;div style=&quot;text-align: left&quot;&gt;&lt;span&gt;&amp;nbsp; &amp;lt;property name=&#39;url&#39; value=&#39;${jdbc.url}&#39;&amp;gt;&lt;/span&gt;&lt;/div&gt;&lt;div style=&quot;text-align: left&quot;&gt;&lt;span&gt;&amp;nbsp; &amp;lt;property name=&#39;username&#39; value=&#39;${jdbc.username}&#39;&amp;gt;&lt;/span&gt;&lt;/div&gt;&lt;div style=&quot;text-align: left&quot;&gt;&lt;span&gt;&amp;nbsp; &amp;lt;property name-&#39;password&#39; value=&#39;${jdbc.password}&#39;&amp;gt;&lt;/span&gt;&lt;/div&gt;&lt;div style=&quot;text-align: left&quot;&gt;&lt;span&gt;&amp;lt;/bean&amp;gt;&lt;/span&gt;&lt;/div&gt;&lt;/span&gt;" style="shape=note;whiteSpace=wrap;html=1;backgroundOutline=1;darkOpacity=0.05;size=17;fillColor=#ffe6cc;strokeColor=#d79b00;" parent="1" vertex="1">
          <mxGeometry x="26" y="395" width="500" height="100" as="geometry" />
        </mxCell>
        <mxCell id="kVP1armv6cL0o3EUo8lq-18" value="&lt;div style=&quot;text-align: left&quot;&gt;&lt;font style=&quot;font-size: 14px&quot;&gt;context.getBean(Person.class)&lt;/font&gt;&lt;/div&gt;" style="shape=note;whiteSpace=wrap;html=1;backgroundOutline=1;darkOpacity=0.05;size=17;fillColor=#ffe6cc;strokeColor=#d79b00;" parent="1" vertex="1">
          <mxGeometry x="578" y="395" width="200" height="50" as="geometry" />
        </mxCell>
        <mxCell id="6qEHQewcnSZ_MV3cc5DO-1" value="BeanFactory" style="rounded=0;whiteSpace=wrap;html=1;fontSize=14;" parent="1" vertex="1">
          <mxGeometry x="689.5" y="212" width="108" height="52" as="geometry" />
        </mxCell>
        <mxCell id="6qEHQewcnSZ_MV3cc5DO-2" value="" style="endArrow=block;endFill=1;endSize=12;html=1;rounded=0;fontSize=14;entryX=0.5;entryY=0;entryDx=0;entryDy=0;exitX=0.5;exitY=1;exitDx=0;exitDy=0;" parent="1" source="6qEHQewcnSZ_MV3cc5DO-1" target="6qEHQewcnSZ_MV3cc5DO-3" edge="1">
          <mxGeometry width="160" relative="1" as="geometry">
            <mxPoint x="580.5" y="281" as="sourcePoint" />
            <mxPoint x="740.5" y="281" as="targetPoint" />
          </mxGeometry>
        </mxCell>
        <mxCell id="6qEHQewcnSZ_MV3cc5DO-3" value="ApplicationContext" style="rounded=0;whiteSpace=wrap;html=1;fontSize=14;" parent="1" vertex="1">
          <mxGeometry x="680" y="305" width="127" height="52" as="geometry" />
        </mxCell>
        <mxCell id="6qEHQewcnSZ_MV3cc5DO-13" value="" style="edgeStyle=orthogonalEdgeStyle;rounded=0;orthogonalLoop=1;jettySize=auto;html=1;fontSize=14;endArrow=block;endFill=1;" parent="1" source="6qEHQewcnSZ_MV3cc5DO-8" target="6qEHQewcnSZ_MV3cc5DO-12" edge="1">
          <mxGeometry relative="1" as="geometry" />
        </mxCell>
        <mxCell id="6qEHQewcnSZ_MV3cc5DO-15" value="" style="edgeStyle=orthogonalEdgeStyle;rounded=0;orthogonalLoop=1;jettySize=auto;html=1;fontSize=14;endArrow=block;endFill=1;" parent="1" source="6qEHQewcnSZ_MV3cc5DO-8" target="6qEHQewcnSZ_MV3cc5DO-14" edge="1">
          <mxGeometry relative="1" as="geometry" />
        </mxCell>
        <mxCell id="6qEHQewcnSZ_MV3cc5DO-8" value="PostProcessor&lt;br&gt;(后置处理器/增强器)" style="rounded=0;whiteSpace=wrap;html=1;fontSize=14;" parent="1" vertex="1">
          <mxGeometry x="36" y="601" width="141" height="75" as="geometry" />
        </mxCell>
        <mxCell id="6qEHQewcnSZ_MV3cc5DO-12" value="BeanPostProcessor" style="rounded=0;whiteSpace=wrap;html=1;fontSize=14;" parent="1" vertex="1">
          <mxGeometry x="217" y="650" width="190" height="55" as="geometry" />
        </mxCell>
        <mxCell id="6qEHQewcnSZ_MV3cc5DO-17" value="" style="edgeStyle=orthogonalEdgeStyle;rounded=0;orthogonalLoop=1;jettySize=auto;html=1;fontSize=14;endArrow=block;endFill=1;" parent="1" source="6qEHQewcnSZ_MV3cc5DO-14" target="6qEHQewcnSZ_MV3cc5DO-16" edge="1">
          <mxGeometry relative="1" as="geometry" />
        </mxCell>
        <mxCell id="6qEHQewcnSZ_MV3cc5DO-14" value="BeanFactoryPostProcessor" style="rounded=0;whiteSpace=wrap;html=1;fontSize=14;" parent="1" vertex="1">
          <mxGeometry x="217" y="572" width="190" height="59" as="geometry" />
        </mxCell>
        <mxCell id="6qEHQewcnSZ_MV3cc5DO-19" value="" style="edgeStyle=orthogonalEdgeStyle;rounded=0;orthogonalLoop=1;jettySize=auto;html=1;fontSize=14;endArrow=block;endFill=1;" parent="1" source="6qEHQewcnSZ_MV3cc5DO-16" target="6qEHQewcnSZ_MV3cc5DO-18" edge="1">
          <mxGeometry relative="1" as="geometry" />
        </mxCell>
        <mxCell id="6qEHQewcnSZ_MV3cc5DO-16" value="BeanDefintionRegistryPostProcessor" style="rounded=0;whiteSpace=wrap;html=1;fontSize=14;" parent="1" vertex="1">
          <mxGeometry x="430" y="572" width="250" height="59" as="geometry" />
        </mxCell>
        <mxCell id="6qEHQewcnSZ_MV3cc5DO-21" value="" style="edgeStyle=orthogonalEdgeStyle;rounded=0;orthogonalLoop=1;jettySize=auto;html=1;fontSize=14;endArrow=block;endFill=1;dashed=1;" parent="1" source="6qEHQewcnSZ_MV3cc5DO-18" target="6qEHQewcnSZ_MV3cc5DO-20" edge="1">
          <mxGeometry relative="1" as="geometry" />
        </mxCell>
        <mxCell id="6qEHQewcnSZ_MV3cc5DO-18" value="ConfigurationClassPostProcessor" style="rounded=0;whiteSpace=wrap;html=1;fontSize=14;" parent="1" vertex="1">
          <mxGeometry x="446" y="652" width="218" height="50" as="geometry" />
        </mxCell>
        <mxCell id="6qEHQewcnSZ_MV3cc5DO-20" value="SpringBoot自动装配原理" style="rounded=0;whiteSpace=wrap;html=1;fontSize=14;" parent="1" vertex="1">
          <mxGeometry x="693" y="651" width="121" height="52" as="geometry" />
        </mxCell>
        <mxCell id="6qEHQewcnSZ_MV3cc5DO-27" value="" style="edgeStyle=orthogonalEdgeStyle;rounded=0;orthogonalLoop=1;jettySize=auto;html=1;fontSize=14;endArrow=block;endFill=1;" parent="1" source="6qEHQewcnSZ_MV3cc5DO-23" target="6qEHQewcnSZ_MV3cc5DO-26" edge="1">
          <mxGeometry relative="1" as="geometry" />
        </mxCell>
        <mxCell id="6qEHQewcnSZ_MV3cc5DO-29" value="" style="edgeStyle=orthogonalEdgeStyle;rounded=0;orthogonalLoop=1;jettySize=auto;html=1;fontSize=14;endArrow=block;endFill=1;" parent="1" source="6qEHQewcnSZ_MV3cc5DO-23" target="6qEHQewcnSZ_MV3cc5DO-28" edge="1">
          <mxGeometry relative="1" as="geometry" />
        </mxCell>
        <mxCell id="6qEHQewcnSZ_MV3cc5DO-23" value="创建对象" style="rounded=0;whiteSpace=wrap;html=1;fontSize=14;" parent="1" vertex="1">
          <mxGeometry x="36" y="766" width="120" height="60" as="geometry" />
        </mxCell>
        <mxCell id="6qEHQewcnSZ_MV3cc5DO-31" value="" style="edgeStyle=orthogonalEdgeStyle;rounded=0;orthogonalLoop=1;jettySize=auto;html=1;fontSize=14;endArrow=block;endFill=1;" parent="1" source="6qEHQewcnSZ_MV3cc5DO-26" target="6qEHQewcnSZ_MV3cc5DO-30" edge="1">
          <mxGeometry relative="1" as="geometry" />
        </mxCell>
        <mxCell id="6qEHQewcnSZ_MV3cc5DO-26" value="实例化" style="whiteSpace=wrap;html=1;rounded=0;fontSize=14;" parent="1" vertex="1">
          <mxGeometry x="213" y="724" width="120" height="60" as="geometry" />
        </mxCell>
        <mxCell id="6qEHQewcnSZ_MV3cc5DO-33" value="" style="edgeStyle=orthogonalEdgeStyle;rounded=0;orthogonalLoop=1;jettySize=auto;html=1;fontSize=14;endArrow=block;endFill=1;" parent="1" source="6qEHQewcnSZ_MV3cc5DO-28" target="6qEHQewcnSZ_MV3cc5DO-32" edge="1">
          <mxGeometry relative="1" as="geometry" />
        </mxCell>
        <mxCell id="6qEHQewcnSZ_MV3cc5DO-28" value="初始化" style="whiteSpace=wrap;html=1;rounded=0;fontSize=14;" parent="1" vertex="1">
          <mxGeometry x="213" y="799" width="120" height="60" as="geometry" />
        </mxCell>
        <mxCell id="6qEHQewcnSZ_MV3cc5DO-30" value="分配内存，属性值为默认值" style="whiteSpace=wrap;html=1;rounded=0;fontSize=14;align=left;" parent="1" vertex="1">
          <mxGeometry x="383" y="724" width="120" height="60" as="geometry" />
        </mxCell>
        <mxCell id="6qEHQewcnSZ_MV3cc5DO-32" value="&lt;div style=&quot;text-align: left&quot;&gt;&lt;span&gt;1.属性赋值&lt;/span&gt;&lt;/div&gt;&lt;div style=&quot;text-align: left&quot;&gt;&lt;span&gt;2.执行init()方法&lt;/span&gt;&lt;/div&gt;&lt;div style=&quot;text-align: left&quot;&gt;&lt;span&gt;3.扩展实现&lt;/span&gt;&lt;/div&gt;" style="whiteSpace=wrap;html=1;rounded=0;fontSize=14;" parent="1" vertex="1">
          <mxGeometry x="383" y="799" width="120" height="60" as="geometry" />
        </mxCell>
      </root>
    </mxGraphModel>
  </diagram>
  <diagram id="VFYY9jWCMX7VbDls3tXf" name="Spring学习">
    <mxGraphModel dx="868" dy="450" grid="1" gridSize="10" guides="1" tooltips="1" connect="1" arrows="1" fold="1" page="1" pageScale="1" pageWidth="827" pageHeight="1169" math="0" shadow="0">
      <root>
        <mxCell id="4Celpckykmlx5bTQp5N6-0" />
        <mxCell id="4Celpckykmlx5bTQp5N6-1" parent="4Celpckykmlx5bTQp5N6-0" />
        <mxCell id="4Celpckykmlx5bTQp5N6-3" value="" style="rounded=1;whiteSpace=wrap;html=1;fillColor=none;align=left;verticalAlign=top;" parent="4Celpckykmlx5bTQp5N6-1" vertex="1">
          <mxGeometry x="50" y="20" width="280" height="190" as="geometry" />
        </mxCell>
        <mxCell id="4Celpckykmlx5bTQp5N6-4" value="" style="rounded=1;whiteSpace=wrap;html=1;" parent="4Celpckykmlx5bTQp5N6-1" vertex="1">
          <mxGeometry x="380" y="40" width="280" height="190" as="geometry" />
        </mxCell>
        <mxCell id="4Celpckykmlx5bTQp5N6-7" value="UserService实例" style="ellipse;whiteSpace=wrap;html=1;labelBackgroundColor=none;fontSize=16;fillColor=none;" parent="4Celpckykmlx5bTQp5N6-1" vertex="1">
          <mxGeometry x="420" y="60" width="130" height="50" as="geometry" />
        </mxCell>
        <mxCell id="4Celpckykmlx5bTQp5N6-8" value="UserDao实例" style="ellipse;whiteSpace=wrap;html=1;labelBackgroundColor=none;fontSize=16;fillColor=none;" parent="4Celpckykmlx5bTQp5N6-1" vertex="1">
          <mxGeometry x="420" y="120" width="130" height="50" as="geometry" />
        </mxCell>
        <mxCell id="92CscS3VjFXU9r3_E-yb-1" value="&lt;div style=&quot;text-align: left&quot;&gt;&lt;span style=&quot;font-size: 16px;&quot;&gt;getBean(&quot;userService&quot;)&lt;/span&gt;&lt;/div&gt;" style="text;html=1;strokeColor=none;fillColor=none;align=center;verticalAlign=middle;whiteSpace=wrap;rounded=0;labelBackgroundColor=#FFE599;" vertex="1" parent="4Celpckykmlx5bTQp5N6-1">
          <mxGeometry x="70" y="30" width="180" height="40" as="geometry" />
        </mxCell>
        <mxCell id="92CscS3VjFXU9r3_E-yb-2" value="&lt;span style=&quot;font-size: 16px ; text-align: left&quot;&gt;获得UserService实例，发现UserService实例内部需要UserDao实例的save()方法，&lt;/span&gt;" style="text;html=1;strokeColor=none;fillColor=none;align=center;verticalAlign=middle;whiteSpace=wrap;rounded=0;" vertex="1" parent="4Celpckykmlx5bTQp5N6-1">
          <mxGeometry x="70" y="70" width="220" height="60" as="geometry" />
        </mxCell>
      </root>
    </mxGraphModel>
  </diagram>
</mxfile>
